<svg width="24" height="24" viewBox="0 0 24 24" fill="none" xmlns="http://www.w3.org/2000/svg">
<mask id="mask0_39_57" style="mask-type:luminance" maskUnits="userSpaceOnUse" x="0" y="0" width="24" height="24">
<path d="M12 24C18.6274 24 24 18.6274 24 12C24 5.37258 18.6274 0 12 0C5.37258 0 0 5.37258 0 12C0 18.6274 5.37258 24 12 24Z" fill="white"/>
<path d="M18 9H6C4.34315 9 3 10.3431 3 12C3 13.6569 4.34315 15 6 15H18C19.6569 15 21 13.6569 21 12C21 10.3431 19.6569 9 18 9Z" fill="black"/>
</mask>
<g mask="url(#mask0_39_57)">
<circle cx="12" cy="12" r="12" fill="#F23F43"/>
</g>
</svg>
