<?xml version="1.0" standalone="no"?>
<!DOCTYPE svg PUBLIC "-//W3C//DTD SVG 20010904//EN"
 "http://www.w3.org/TR/2001/REC-SVG-20010904/DTD/svg10.dtd">
<svg version="1.0" xmlns="http://www.w3.org/2000/svg"
 width="700.000000pt" height="700.000000pt" viewBox="0 0 700.000000 700.000000"
 preserveAspectRatio="xMidYMid meet">
<metadata>
Created by potrace 1.14, written by Peter Selinger 2001-2017
</metadata>
<g transform="translate(0.000000,700.000000) scale(0.100000,-0.100000)"
fill="#000000" stroke="none">
<path d="M3270 6994 c-19 -2 -84 -9 -145 -14 -780 -76 -1528 -433 -2101 -1005
-569 -568 -909 -1277 -1006 -2100 -17 -145 -17 -576 0 -730 52 -467 198 -928
418 -1324 573 -1026 1605 -1693 2772 -1792 178 -15 573 -6 732 15 979 136
1823 641 2394 1436 347 482 567 1065 631 1674 18 169 20 495 4 669 -71 798
-414 1541 -979 2121 -561 576 -1276 930 -2080 1032 -118 14 -561 27 -640 18z
m-298 -2002 l43 -93 37 6 c248 37 643 37 896 0 l37 -6 54 115 c47 100 57 115
75 111 12 -2 48 -9 81 -15 95 -18 250 -58 375 -97 122 -38 375 -136 396 -154
23 -19 173 -266 244 -401 207 -398 336 -819 386 -1263 18 -160 22 -604 7 -700
l-8 -50 -142 -95 c-165 -110 -336 -205 -513 -283 -146 -64 -371 -147 -400
-147 -13 0 -37 27 -79 88 -59 88 -161 261 -161 272 0 4 18 12 39 19 60 18 323
150 317 159 -3 5 -23 21 -44 36 l-39 27 -84 -36 c-622 -267 -1351 -267 -1972
0 l-88 38 -37 -30 c-20 -17 -36 -34 -36 -39 2 -12 167 -99 259 -135 44 -18 82
-34 84 -35 6 -5 -69 -136 -145 -251 -51 -79 -79 -113 -93 -113 -10 0 -65 16
-121 36 -191 66 -382 151 -544 240 -107 60 -380 237 -390 253 -4 5 -11 91 -17
191 -41 725 154 1448 569 2109 l65 104 81 37 c184 85 418 160 656 210 l135 28
17 -21 c10 -12 37 -64 60 -115z"/>
<path d="M2703 3775 c-106 -33 -194 -113 -246 -223 -43 -91 -50 -225 -18 -329
78 -257 355 -362 562 -214 148 106 212 320 150 504 -68 200 -269 318 -448 262z"/>
<path d="M4106 3774 c-63 -20 -111 -51 -162 -105 -67 -73 -97 -135 -114 -244
-29 -182 70 -379 228 -453 49 -23 70 -27 147 -27 79 0 97 4 148 29 31 16 79
53 106 81 245 258 99 709 -237 731 -44 2 -83 -1 -116 -12z"/>
</g>
</svg>
